<svg width="47" height="41" viewBox="0 0 47 41" fill="none" xmlns="http://www.w3.org/2000/svg">
<rect x="8.37694" y="0.612372" width="39" height="30" transform="rotate(15 8.37694 0.612372)" fill="#D9D9D9" stroke="#323232"/>
<rect x="33.8446" y="7.95404" width="12" height="9" transform="rotate(15 33.8446 7.95404)" fill="black"/>
<rect x="18.6993" y="14.2486" width="12" height="9" transform="rotate(15 18.6993 14.2486)" fill="black"/>
<rect x="3.55412" y="20.5433" width="12" height="9" transform="rotate(15 3.55412 20.5433)" fill="black"/>
<rect x="28.6682" y="27.2726" width="12" height="9" transform="rotate(15 28.6682 27.2726)" fill="black"/>
<line x1="20.8046" y1="4.45998" x2="13.2988" y2="32.4718" stroke="#323232"/>
<line x1="33.3616" y1="7.82463" x2="25.8559" y2="35.8365" stroke="#323232"/>
<line x1="6.27172" y1="10.401" x2="42.9769" y2="20.2362" stroke="#323232"/>
<line x1="3.68352" y1="20.0603" x2="40.3887" y2="29.8954" stroke="#323232"/>
<rect x="8.7305" y="1.22474" width="12" height="9" transform="rotate(15 8.7305 1.22474)" fill="black"/>
<rect x="21.2875" y="4.58939" width="12" height="9" transform="rotate(15 21.2875 4.58939)" fill="white"/>
<rect x="6.14231" y="10.884" width="12" height="9" transform="rotate(15 6.14231 10.884)" fill="white"/>
<rect x="31.2564" y="17.6133" width="12" height="9" transform="rotate(15 31.2564 17.6133)" fill="white"/>
<rect x="16.1112" y="23.9079" width="12" height="9" transform="rotate(15 16.1112 23.9079)" fill="white"/>
</svg>
